<?xml version="1.0" encoding="UTF-8"?>
<svg version="1.1" xmlns="http://www.w3.org/2000/svg" width="500" height="500">
<path d="M0 0 C1.11474701 0.00444122 2.22949402 0.00888245 3.37802124 0.01345825 C5.26975571 0.01368484 5.26975571 0.01368484 7.19970703 0.01391602 C8.58124956 0.02413006 9.96279048 0.03456206 11.34432983 0.04519653 C12.7539449 0.04892615 14.16356256 0.05177337 15.57318115 0.05377197 C19.28536116 0.06141248 22.99738494 0.08106442 26.70950317 0.10317993 C30.4966114 0.12362945 34.28374483 0.13277177 38.07089233 0.14285278 C45.50325526 0.16431004 52.93548942 0.19845087 60.36776733 0.24050903 C62.63040309 4.64864812 62.32986351 7.61471604 61.53474426 12.44587708 C61.42062093 13.16273534 61.30649759 13.87959361 61.18891597 14.61817485 C60.80246187 17.02413494 60.39648711 19.42638501 59.99057007 21.82913208 C59.70809387 23.56203858 59.42682938 25.29514296 59.14667988 27.02842712 C58.37622607 31.77339189 57.58880369 36.51540676 56.79863071 41.2571218 C55.95917706 46.31323727 55.13568855 51.37195244 54.31045532 56.43040466 C52.71178886 66.21477903 51.09918029 75.99680383 49.48176348 85.77809411 C47.43684962 98.148491 45.40851643 110.52159574 43.38070679 122.89480591 C42.64163994 127.40345618 41.90247054 131.91208963 41.16325378 136.42071533 C40.9804541 137.53574185 40.79765441 138.65076836 40.60931534 139.79958355 C39.31389625 147.6997599 38.01564335 155.59946767 36.71644592 163.49902344 C32.43280289 189.5528118 28.1989096 215.61378883 24.0446384 241.68851876 C23.42308101 245.58804913 22.80008635 249.48734979 22.17723083 253.38667297 C20.25094873 265.4498734 18.32615193 277.51326452 16.42288148 289.58012003 C15.51958352 295.303004 14.60558036 301.0241445 13.68752289 306.7446804 C13.32110455 309.04011274 12.95846888 311.33615273 12.59998322 313.6328373 C12.11910904 316.71203558 11.62535992 319.7888944 11.12826538 322.86550903 C10.99288581 323.75408946 10.85750624 324.64266989 10.71802425 325.55817699 C9.33187309 333.9631311 9.33187309 333.9631311 6.36776733 337.24050903 C3.66670227 337.85523987 3.66670227 337.85523987 0.36752319 337.83987427 C-0.86708145 337.845952 -2.1016861 337.85202972 -3.373703 337.85829163 C-4.72161016 337.83938888 -6.06950566 337.81963896 -7.41738892 337.79910278 C-8.79836074 337.79485255 -10.17933971 337.7925241 -11.56031799 337.79203796 C-14.45319029 337.78587262 -17.34528822 337.7631736 -20.23794556 337.72756958 C-23.94945286 337.6822539 -27.66025948 337.66754166 -31.37201786 337.66383266 C-34.22275224 337.65940833 -37.07333896 337.64411287 -39.92400932 337.62495613 C-41.29276755 337.61606577 -42.66154157 337.60933973 -44.03032112 337.60479546 C-45.94075125 337.59577233 -47.8510926 337.57170596 -49.76138306 337.54690552 C-50.84931656 337.53626572 -51.93725006 337.52562592 -53.05815125 337.5146637 C-55.63223267 337.24050903 -55.63223267 337.24050903 -57.63223267 335.24050903 C-58.10570489 324.46398495 -55.09251265 312.92876837 -53.36026001 302.31668091 C-53.01953167 300.20811677 -52.67920587 298.09948755 -52.33924866 295.99079895 C-51.41476722 290.26376731 -50.48461757 284.53766919 -49.5534358 278.81172371 C-48.56290444 272.71474138 -47.57757119 266.6169189 -46.59161377 260.51919556 C-44.92162342 250.19550749 -43.24836092 239.87235405 -41.57266235 229.54959106 C-39.26713436 215.34683799 -36.96713412 201.14319325 -34.66850805 186.93932152 C-32.02360966 170.59611232 -29.37722637 154.25314931 -26.72177124 137.91165161 C-26.52214964 136.68314578 -26.32252803 135.45463995 -26.11685729 134.18890667 C-25.31791557 129.27227583 -24.51895702 124.35564774 -23.71983099 119.43904686 C-21.21112731 104.00207686 -18.71614445 88.56298267 -16.23747063 73.12116241 C-15.00653633 65.45337976 -13.77033618 57.78644936 -12.53251755 50.1197753 C-11.55381063 44.05531136 -10.58193465 37.98980612 -9.61526012 31.92341328 C-9.0287564 28.25363301 -8.43557448 24.58495706 -7.84036207 20.9165802 C-7.56805845 19.22957033 -7.29858771 17.54210044 -7.03213549 15.85415649 C-6.6717948 13.57366295 -6.30160096 11.29498982 -5.92877197 9.01651001 C-5.72517878 7.74701759 -5.52158558 6.47752518 -5.31182289 5.16956329 C-4.45395717 1.47213631 -3.85908032 0.35260701 0 0 Z " fill="#040404" transform="translate(350.6322326660156,84.75949096679688)"/>
<path d="M0 0 C1.85202026 -0.00945648 1.85202026 -0.00945648 3.74145508 -0.019104 C5.09456525 -0.01552432 6.44767412 -0.01142238 7.80078125 -0.00683594 C9.18318754 -0.00818268 10.56559338 -0.01012329 11.94799805 -0.01263428 C14.84656276 -0.01558511 17.74500428 -0.0112893 20.64355469 -0.00195312 C24.36288762 0.00944152 28.08193193 0.00288181 31.80125427 -0.00909805 C34.65623152 -0.01631782 37.5111401 -0.01402822 40.36611938 -0.00884247 C41.73768142 -0.00750629 43.10924964 -0.0091526 44.48080444 -0.01380157 C46.39605595 -0.01886842 48.31132926 -0.00977925 50.2265625 0 C51.31751221 0.00159119 52.40846191 0.00318237 53.5324707 0.00482178 C56.11328125 0.25878906 56.11328125 0.25878906 58.11328125 2.25878906 C58.58635612 12.39370517 55.56808123 23.42645913 53.93310547 33.41064453 C53.60229059 35.44848367 53.27181505 37.48637792 52.94165039 39.52432251 C52.04330772 45.06335408 51.14025819 50.6016092 50.23641348 56.13974524 C49.27432904 62.04014106 48.31674539 67.94126731 47.3586731 73.84231567 C45.52734246 85.11788381 43.69220547 96.39282888 41.85561669 107.66754162 C39.22846146 123.79649796 36.60698409 139.92637707 33.98535538 156.05623245 C33.58791638 158.50145768 33.19047452 160.94668244 32.79302979 163.39190674 C32.59678017 164.5993395 32.40053055 165.80677226 32.19833398 167.05079389 C31.01317076 174.34179319 29.82698667 181.63262558 28.64000249 188.92332864 C24.80308741 212.49124247 20.97653421 236.06067643 17.19878459 259.6381557 C16.66436401 262.97303911 16.12944276 266.30784182 15.59435463 269.64261818 C15.24836768 271.79918875 14.90239167 273.95576107 14.556427 276.11233521 C14.38843114 277.15950954 14.22043527 278.20668388 14.04734862 279.28559077 C13.06905615 285.3865637 12.0947524 291.48815714 11.12348938 297.59025288 C10.5319486 301.30149567 9.93700182 305.01218666 9.34116316 308.7227416 C9.06869032 310.42447406 8.79771794 312.12644758 8.52838945 313.82868052 C8.16208365 316.14303369 7.79054311 318.45648936 7.41775513 320.76980591 C7.21265383 322.05613985 7.00755253 323.34247379 6.79623604 324.66778755 C4.93903122 334.43303909 4.93903122 334.43303909 2.11328125 337.25878906 C-0.4675293 337.51275635 -0.4675293 337.51275635 -3.7734375 337.51757812 C-5.00811768 337.52388245 -6.24279785 337.53018677 -7.51489258 337.53668213 C-8.86800275 337.53310245 -10.22111162 337.52900051 -11.57421875 337.52441406 C-12.95662504 337.52576081 -14.33903088 337.52770142 -15.72143555 337.5302124 C-18.62000026 337.53316324 -21.51844178 337.52886742 -24.41699219 337.51953125 C-28.13632512 337.50813661 -31.85536943 337.51469631 -35.57469177 337.52667618 C-38.42966902 337.53389594 -41.2845776 337.53160634 -44.13955688 337.52642059 C-45.51111892 337.52508441 -46.88268714 337.52673072 -48.25424194 337.5313797 C-50.16949345 337.53644654 -52.08476676 337.52735737 -54 337.51757812 C-55.09094971 337.51598694 -56.18189941 337.51439575 -57.3059082 337.51275635 C-59.88671875 337.25878906 -59.88671875 337.25878906 -61.88671875 335.25878906 C-61.7457428 332.20384216 -61.7457428 332.20384216 -61.19165039 328.2722168 C-61.09343774 327.5602008 -60.99522509 326.8481848 -60.89403629 326.11459255 C-60.57283344 323.82693576 -60.23283522 321.5428018 -59.88671875 319.25878906 C-59.77890453 318.54249958 -59.67109032 317.8262101 -59.560009 317.08821487 C-58.74617822 311.73407703 -57.87930093 306.38894658 -57.0078125 301.04394531 C-56.72088185 299.27061625 -56.4342071 297.49724577 -56.14776421 295.72383785 C-55.37222246 290.92679576 -54.59317908 286.13032828 -53.81352758 281.33395267 C-52.982011 276.21432355 -52.15392563 271.09413944 -51.32546997 265.97401428 C-49.91345701 257.25005424 -48.49949564 248.52641202 -47.08404541 239.80300903 C-43.97230251 220.62536993 -40.86652726 201.44676422 -37.76070201 182.26816601 C-36.85393034 176.66883811 -35.94702761 171.06953151 -35.03982162 165.47027397 C-30.72522351 138.8402653 -26.42353336 112.20830669 -22.16576099 85.56914949 C-21.72811085 82.83135325 -21.29012745 80.09361037 -20.8521421 77.35586774 C-19.01825809 65.8921822 -17.18678876 54.42812763 -15.36573982 42.96239567 C-14.69787102 38.76247123 -14.02669596 34.56308018 -13.35461044 30.36382866 C-13.05407124 28.4809589 -12.75504679 26.59784657 -12.45773697 24.71446419 C-12.0617944 22.20654976 -11.66068963 19.69951387 -11.25830078 17.19262695 C-11.14737595 16.48110977 -11.03645111 15.76959259 -10.92216492 15.03651428 C-8.48624553 0.01237747 -8.48624553 0.01237747 0 0 Z " fill="#040404" transform="translate(141.88671875,84.7412109375)"/>
<path d="M0 0 C3.96930989 -0.02465881 7.93859034 -0.04284023 11.90795898 -0.05493164 C13.25920386 -0.05997057 14.61044326 -0.06680177 15.96166992 -0.07543945 C17.90020434 -0.08752419 19.838778 -0.09269828 21.77734375 -0.09765625 C23.52905884 -0.10551147 23.52905884 -0.10551147 25.31616211 -0.11352539 C28 0 28 0 29 1 C29.20734267 3.52941844 29.34882539 6.03356865 29.44677734 8.56811523 C29.48017684 9.36765027 29.51357634 10.16718531 29.54798794 10.99094868 C29.97554155 21.80280437 30.21279496 32.61874153 30.375 43.4375 C30.39143932 44.48966831 30.40787865 45.54183662 30.42481613 46.62588882 C30.86471686 78.41152008 28.04697136 107.29142473 18.5625 137.6875 C18.31348686 138.48587658 18.06447372 139.28425316 17.80791473 140.10682297 C15.02701656 148.958016 12.07559096 157.73850324 8.91749573 166.46244812 C8.25329948 168.29944025 7.61771326 170.14686021 7 172 C-2.57 172 -12.14 172 -22 172 C-22.63000524 157.35664739 -23.07336022 142.71763198 -23.3125 128.0625 C-23.33924364 126.42765215 -23.33924364 126.42765215 -23.36652756 124.75977707 C-23.829384 92.58413687 -21.32274416 63.30426472 -11.5625 32.5625 C-11.31342014 31.77668171 -11.06434029 30.99086342 -10.80771255 30.18123245 C-3.24303144 6.48606287 -3.24303144 6.48606287 0 0 Z " fill="#0A0A0A" transform="translate(243,167)"/>
</svg>
